<?xml version="1.0" encoding="UTF-8" standalone="no"?>
<svg
   xmlns:dc="http://purl.org/dc/elements/1.1/"
   xmlns:cc="http://creativecommons.org/ns#"
   xmlns:rdf="http://www.w3.org/1999/02/22-rdf-syntax-ns#"
   xmlns:svg="http://www.w3.org/2000/svg"
   xmlns="http://www.w3.org/2000/svg"
   xmlns:sodipodi="http://sodipodi.sourceforge.net/DTD/sodipodi-0.dtd"
   xmlns:inkscape="http://www.inkscape.org/namespaces/inkscape"
   fill-opacity="1"
   color-rendering="auto"
   color-interpolation="auto"
   text-rendering="auto"
   stroke="black"
   stroke-linecap="square"
   width="712"
   stroke-miterlimit="10"
   shape-rendering="auto"
   stroke-opacity="1"
   fill="black"
   stroke-dasharray="none"
   font-weight="normal"
   stroke-width="1"
   height="277"
   font-family="'Dialog'"
   font-style="normal"
   stroke-linejoin="miter"
   font-size="12px"
   stroke-dashoffset="0"
   image-rendering="auto"
   version="1.1"
   id="svg176"
   sodipodi:docname="data-flow.svg"
   inkscape:version="0.92.5 (2060ec1f9f, 2020-04-08)">
  <path
     d="m 463.5959,485.9785 -0.7509,0.8993 -13.2563,13.7608 -13.2563,11.6437 -13.2564,9.5267 -13.2563,7.4097 -13.2563,5.2926 -13.2564,3.1755 -13.2563,1.0586 -13.2564,-1.0586 -13.2563,-3.1755 -13.2563,-5.2926 -13.2564,-7.4097 -13.2563,-9.5267 -13.2563,-11.6437 -8.5172,-8.8412 -0.064,-0.0768"
     clip-path="url(#clipPath2)"
     id="path140"
     inkscape:connector-curvature="0"
     style="fill:none;stroke-linecap:butt;stroke-miterlimit:1.45000005;shape-rendering:geometricPrecision;text-rendering:geometricPrecision"
     transform="translate(-36,-372)" />
  <metadata
     id="metadata180">
    <rdf:RDF>
      <cc:Work
         rdf:about="">
        <dc:format>image/svg+xml</dc:format>
        <dc:type
           rdf:resource="http://purl.org/dc/dcmitype/StillImage" />
      </cc:Work>
    </rdf:RDF>
  </metadata>
  <sodipodi:namedview
     pagecolor="#ffffff"
     bordercolor="#666666"
     borderopacity="1"
     objecttolerance="10"
     gridtolerance="10"
     guidetolerance="10"
     inkscape:pageopacity="0"
     inkscape:pageshadow="2"
     inkscape:window-width="1280"
     inkscape:window-height="935"
     id="namedview178"
     showgrid="false"
     inkscape:zoom="0.6502809"
     inkscape:cx="333.21854"
     inkscape:cy="28.517667"
     inkscape:window-x="0"
     inkscape:window-y="448"
     inkscape:window-maximized="1"
     inkscape:current-layer="svg176" />
  <!--Generated by ySVG 2.5-->
  <path
     d="m 277.8,456.014 12.7127,-12.0276 13.2563,-10.6125 13.2563,-8.6829 13.2564,-6.7534 13.2563,-4.8239 13.2563,-2.8942 13.2564,-0.9648 13.2563,0.9648 13.2564,2.8942 13.2563,4.8239 13.2563,6.7534 13.2564,8.6829 13.2563,10.6125 6.9014,6.5295"
     clip-path="url(#clipPath2)"
     id="path134"
     inkscape:connector-curvature="0"
     style="fill:none;stroke-linecap:butt;stroke-miterlimit:1.45000005;shape-rendering:geometricPrecision;text-rendering:geometricPrecision"
     transform="translate(-36,-372)" />
  <defs
     id="genericDefs">
    <defs
       id="defs1">
      <clipPath
         id="clipPath1"
         clipPathUnits="userSpaceOnUse">
        <path
           id="path3"
           d="M0 0 L712 0 L712 277 L0 277 L0 0 Z" />
      </clipPath>
      <clipPath
         id="clipPath2"
         clipPathUnits="userSpaceOnUse">
        <path
           id="path6"
           d="M36 372 L748 372 L748 649 L36 649 L36 372 Z" />
      </clipPath>
      <clipPath
         id="clipPath3"
         clipPathUnits="userSpaceOnUse">
        <path
           id="path9"
           d="M-112.5146 -182.0084 L600.9131 -182.0084 L600.9131 87.4632 L-112.5146 87.4632 L-112.5146 -182.0084 Z" />
      </clipPath>
    </defs>
  </defs>
  <g
     style="fill:#ffffff;stroke:#ffffff;shape-rendering:geometricPrecision;text-rendering:geometricPrecision"
     id="g15"
     transform="translate(-36,-372)">
    <rect
       style="stroke:none"
       id="rect13"
       clip-path="url(#clipPath2)"
       y="456"
       height="30"
       width="58.349602"
       x="64.825203" />
  </g>
  <g
     style="stroke-linecap:butt;stroke-miterlimit:1.45000005;shape-rendering:geometricPrecision;text-rendering:geometricPrecision"
     id="g21"
     transform="translate(-36,-372)"
     stroke-miterlimit="1.45">
    <rect
       style="fill:none"
       id="rect17"
       clip-path="url(#clipPath2)"
       y="456"
       height="30"
       width="58.349602"
       x="64.825203" />
    <text
       style="font-family:sans-serif;stroke:none"
       id="text19"
       clip-path="url(#clipPath2)"
       y="475.1543"
       xml:space="preserve"
       x="71.825203">Service</text>
  </g>
  <g
     style="fill:#ffffff;stroke:#ffffff;shape-rendering:geometricPrecision;text-rendering:geometricPrecision"
     id="g25"
     transform="translate(-36,-372)">
    <rect
       style="stroke:none"
       id="rect23"
       height="30"
       ry="4"
       rx="4"
       width="129.125"
       clip-path="url(#clipPath2)"
       y="456"
       x="199.4375" />
  </g>
  <g
     style="stroke-linecap:butt;stroke-miterlimit:1.45000005;shape-rendering:geometricPrecision;text-rendering:geometricPrecision"
     id="g31"
     transform="translate(-36,-372)"
     stroke-miterlimit="1.45">
    <rect
       style="fill:none"
       id="rect27"
       height="30"
       ry="4"
       rx="4"
       width="129.125"
       clip-path="url(#clipPath2)"
       y="456"
       x="199.4375" />
    <text
       style="font-family:sans-serif;stroke:none"
       id="text29"
       clip-path="url(#clipPath2)"
       y="475.1543"
       xml:space="preserve"
       x="206.4375">ResourceController</text>
  </g>
  <g
     style="fill:#ffffff;stroke:#ffffff;shape-rendering:geometricPrecision;text-rendering:geometricPrecision"
     id="g35"
     transform="translate(-36,-372)">
    <path
       style="fill-rule:evenodd;stroke:none"
       inkscape:connector-curvature="0"
       id="path33"
       clip-path="url(#clipPath2)"
       d="m 431.6043,471 8.8994,-15 h 71.1953 l 8.8994,15 -8.8994,15 h -71.1953 z" />
  </g>
  <g
     style="stroke-linecap:butt;stroke-miterlimit:1.45000005;shape-rendering:geometricPrecision;text-rendering:geometricPrecision"
     id="g41"
     transform="translate(-36,-372)"
     stroke-miterlimit="1.45">
    <path
       style="fill:none;fill-rule:evenodd"
       inkscape:connector-curvature="0"
       id="path37"
       clip-path="url(#clipPath2)"
       d="m 431.6043,471 8.8994,-15 h 71.1953 l 8.8994,15 -8.8994,15 h -71.1953 z" />
    <text
       style="font-family:sans-serif;stroke:none"
       id="text39"
       clip-path="url(#clipPath2)"
       y="475.1543"
       xml:space="preserve"
       x="438.60431">ResourceApi</text>
  </g>
  <g
     style="fill:#ffffff;stroke:#ffffff;shape-rendering:geometricPrecision;text-rendering:geometricPrecision"
     id="g45"
     transform="translate(-36,-372)">
    <ellipse
       style="stroke:none"
       id="ellipse43"
       cy="471"
       cx="674.06482"
       clip-path="url(#clipPath2)"
       ry="15"
       rx="58.392601" />
  </g>
  <g
     style="stroke-linecap:butt;stroke-miterlimit:1.45000005;shape-rendering:geometricPrecision;text-rendering:geometricPrecision"
     id="g51"
     transform="translate(-36,-372)"
     stroke-miterlimit="1.45">
    <ellipse
       style="fill:none"
       id="ellipse47"
       cy="471"
       cx="674.06482"
       clip-path="url(#clipPath2)"
       ry="15"
       rx="58.392601" />
    <text
       style="font-family:sans-serif;stroke:none"
       id="text49"
       clip-path="url(#clipPath2)"
       y="475.1543"
       xml:space="preserve"
       x="622.67218">ResourceStorage</text>
  </g>
  <g
     style="shape-rendering:geometricPrecision;text-rendering:geometricPrecision"
     id="g102"
     transform="matrix(0.998,0,0,1.0279,112.2895,187.0933)">
    <g
       id="g100"
       clip-path="url(#clipPath3)">
      <svg
         style="color:#000000;font-style:normal;font-variant:normal;font-weight:400;font-stretch:normal;font-size:12px;font-family:Arial, Helvetica, sans-serif;text-decoration:none;text-decoration-line:none;letter-spacing:normal;word-spacing:normal;writing-mode:lr-tb;direction:ltr;dominant-baseline:auto;baseline-shift:baseline;text-anchor:start;clip-rule:nonzero;display:inline;overflow:hidden;visibility:visible;opacity:1;fill:#000000;fill-opacity:1;fill-rule:nonzero;stroke:none;stroke-width:1;stroke-linecap:butt;stroke-linejoin:miter;stroke-miterlimit:4;stroke-dasharray:none;stroke-dashoffset:0;stroke-opacity:1;marker-start:none;marker-mid:none;marker-end:none;color-rendering:auto;image-rendering:auto;shape-rendering:auto;text-rendering:auto"
         y="0px"
         x="0px"
         dominant-baseline="auto"
         flood-color="rgb(0, 0, 0)"
         unicode-bidi="normal"
         height="65"
         src="none"
         flood-opacity="1"
         kerning="auto"
         visibility="visible"
         cursor="auto"
         clip="auto"
         width="57"
         enable-background="new 0 0 57 65"
         baseline-shift="baseline"
         direction="ltr"
         mask="none"
         pointer-events="visiblepainted"
         font-size="12"
         stop-opacity="1"
         stroke-miterlimit="4"
         id="svg1.Ebene_1"
         font-stretch="normal"
         overflow="hidden"
         font-size-adjust="none"
         display="inline"
         glyph-orientation-vertical="auto"
         viewBox="0 0 57 65"
         letter-spacing="normal"
         text-decoration="none"
         clip-path="none"
         word-spacing="normal"
         font-variant="normal"
         color-interpolation="srgb"
         color-interpolation-filters="linearrgb"
         version="1.1"
         font-style="normal"
         alignment-baseline="auto"
         font-weight="400"
         lighting-color="rgb(255, 255, 255)"
         color-profile="auto"
         glyph-orientation-horizontal="0deg"
         stop-color="rgb(0, 0, 0)"
         xml:space="preserve">
<g
   id="g97">
	
		<radialGradient
   fy="-2300.5422"
   fx="25.6369"
   cy="-2299.3257"
   id="svg1.neck_x5F_white_1_"
   cx="27.8696"
   r="11.4448"
   gradientUnits="userSpaceOnUse"
   gradientTransform="matrix(1,0,0,-1,0.2803,-2253.9199)">
		<stop
   id="stop53"
   style="stop-color:#B38E5D"
   offset="0" />
		<stop
   id="stop55"
   style="stop-color:#805126"
   offset="1" />
	</radialGradient>
	<path
   inkscape:connector-curvature="0"
   style="fill:url(#svg1.neck_x5F_white_1_);stroke:#5b453b;stroke-miterlimit:10"
   stroke-miterlimit="10"
   d="m 19.278,37.799 h 18.188 v 13.23 C 36.153,51.4 20.293,51.465 19.278,51.201 Z"
   id="svg1.neck_x5F_white_2_" />
	
		<radialGradient
   fy="-2310.9819"
   fx="21.264799"
   cy="-2307.6812"
   id="svg1.SVGID_1_"
   cx="27.3228"
   r="31.053699"
   gradientUnits="userSpaceOnUse"
   gradientTransform="matrix(1,0,0,-1,0.2803,-2253.9199)">
		<stop
   id="stop59"
   style="stop-color:#B38E5D"
   offset="0" />
		<stop
   id="stop61"
   style="stop-color:#805126"
   offset="1" />
	</radialGradient>
	<path
   inkscape:connector-curvature="0"
   style="fill:url(#svg1.SVGID_1_);stroke:#5b453b;stroke-miterlimit:10"
   id="path64"
   stroke-miterlimit="10"
   d="M 49.529,51.225 C 45.133,46.829 38.578,45.341 37.466,45.116 V 37.8 H 19.278 c 0,0 0.038,6.903 0,6.868 0,0 -6.874,0.997 -12.308,6.432 -5.592,5.591 -6.47,11.67 -6.47,11.67 0,1.938 1.575,3.492 3.523,3.492 h 48.51 c 1.947,0 3.521,-1.558 3.521,-3.492 10e-4,-0.002 -1.843,-6.864 -6.525,-11.545 z" />
	
		<linearGradient
   id="svg1.body_1_"
   y2="2374.7451"
   y1="2374.7451"
   gradientUnits="userSpaceOnUse"
   x2="-3.6730001"
   x1="59.765598"
   gradientTransform="translate(0.2402,-2319.0742)">
		<stop
   id="stop66"
   style="stop-color:#49AD33"
   offset="0" />
		<stop
   id="stop68"
   style="stop-color:#C2DA92"
   offset="1" />
	</linearGradient>
	<path
   inkscape:connector-curvature="0"
   style="fill:url(#svg1.body_1_);stroke:#008d33"
   id="svg1.body_12_"
   d="m 0.5,62.768 c 0,1.938 1.575,3.494 3.523,3.494 h 48.51 c 1.947,0 3.521,-1.559 3.521,-3.494 0,0 -1.844,-6.861 -6.525,-11.543 -4.815,-4.813 -11.244,-6.146 -11.244,-6.146 -1.771,1.655 -5.61,3.802 -10.063,3.802 -4.453,0 -8.292,-2.146 -10.063,-3.802 0,0 -5.755,0.586 -11.189,6.021 C 1.378,56.689 0.5,62.768 0.5,62.768 Z" />
	<path
   style="fill:#2068a3;stroke:#2068a3"
   inkscape:connector-curvature="0"
   id="path72"
   d="m 28.106,33.486 c -8.112,0 -12.688,4.313 -12.688,10.438 0,7.422 12.688,10.438 12.688,10.438 0,0 14.688,-3.016 14.688,-10.438 C 42.793,38.75 36.215,33.486 28.106,33.486 Z m -1.818,19.565 c 0,0 -7.135,-2.093 -8.805,-7.201 -0.222,-0.682 0.147,-1.156 0.795,-1.521 V 37.8 h 20.188 v 6.663 c 0.235,0.352 1.109,0.737 1.229,1.387 0.75,4.067 -13.407,7.201 -13.407,7.201 z" />
	<path
   style="fill:#5491cf;stroke:#2068a3;stroke-miterlimit:10"
   inkscape:connector-curvature="0"
   id="path74"
   stroke-miterlimit="10"
   d="m 49.529,51.225 c -2.239,-2.24 -5.041,-3.724 -7.396,-4.67 -2.854,5.51 -14.022,7.807 -14.022,7.807 0,0 -10.472,-2.484 -12.387,-8.514 -2.439,0.771 -5.787,2.287 -8.749,5.25 -5.592,5.592 -6.47,11.67 -6.47,11.67 0,1.938 1.575,3.492 3.523,3.492 h 48.51 c 1.947,0 3.521,-1.558 3.521,-3.492 -0.004,0 -1.848,-6.862 -6.53,-11.543 z" />
	<path
   style="fill:#5491cf;stroke:#2068a3"
   inkscape:connector-curvature="0"
   id="path76"
   d="m 13.404,44.173 c 1.15,-1.81 2.039,-3.832 3.332,-5.397 -0.514,1.027 -1.669,4.084 -1.669,5.148 0,5.186 10.366,9.079 14.688,10.438 -3.472,1.627 -9.134,-1.498 -11.335,-2.36 -3.601,-1.419 -4.071,-3.063 -5.89,-4.854 -0.007,-0.013 0.348,-2.148 0.874,-2.975 z" />
	<path
   style="fill:#5491cf;stroke:#2068a3"
   inkscape:connector-curvature="0"
   id="path78"
   d="m 45.777,43.924 c -1.317,-1.568 -5.11,-9.424 -6.604,-6.617 0.516,1.025 3.617,3.693 3.617,6.617 0,5.186 -10.27,8.576 -16.698,9.145 1.429,4.938 11.372,1.293 13.804,-0.313 3.563,-2.354 4.563,-5.133 7.854,-3.705 0.004,-0.006 0.256,-2.477 -1.973,-5.127 z" />
	<path
   style="fill:none;stroke:#2068a3;stroke-linecap:round"
   inkscape:connector-curvature="0"
   id="path80"
   d="m 30.777,54.167 c 0.357,0.836 -0.153,1.983 -0.352,2.813 -0.256,1.084 -0.072,2.104 0.102,3.186 0.164,1.02 0.156,2.107 0.25,3.167 0.082,0.916 0.482,1.849 0.357,2.75" />
	<path
   style="fill:none;stroke:#2068a3;stroke-linecap:round"
   inkscape:connector-curvature="0"
   id="path82"
   d="m 23.695,53.417 c -0.508,0.584 -0.476,2.209 -0.398,3 0.116,1.183 0.456,2.099 0.333,3.333 -0.192,1.943 0.154,4.479 -0.436,6.333" />
	
		<radialGradient
   fy="-2282.1357"
   fx="23.0534"
   cy="-2279.646"
   id="svg1.face_x5F_white_1_"
   cx="27.622999"
   r="23.424999"
   gradientUnits="userSpaceOnUse"
   gradientTransform="matrix(1,0,0,-1,0.2803,-2253.9199)">
		<stop
   id="stop84"
   style="stop-color:#B38E5D"
   offset="0" />
		<stop
   id="stop86"
   style="stop-color:#805126"
   offset="1" />
	</radialGradient>
	<path
   inkscape:connector-curvature="0"
   style="fill:url(#svg1.face_x5F_white_1_);stroke:#5b453b;stroke-miterlimit:10"
   stroke-miterlimit="10"
   d="m 43.676,23.357 c 0.086,10.2 -6.738,18.52 -15.25,18.586 -8.5,0.068 -15.464,-8.146 -15.55,-18.344 C 12.794,13.4 19.618,5.079 28.123,5.012 36.627,4.945 43.59,13.158 43.676,23.357 Z"
   id="svg1.face_x5F_white_2_" />
	
		<linearGradient
   id="svg1.face_highlight_1_"
   y2="11425.428"
   y1="11331.979"
   gradientUnits="userSpaceOnUse"
   x2="5785.3872"
   x1="5761.7578"
   gradientTransform="matrix(0.275,0,0,0.2733,-1558.9874,-3088.7842)">
		<stop
   id="stop90"
   style="stop-color:#FFFFFF;stop-opacity:0.42"
   offset="0" />
		<stop
   id="stop92"
   style="stop-color:#FFFFFF;stop-opacity:0.12"
   offset="1" />
	</linearGradient>
	<path
   inkscape:connector-curvature="0"
   style="fill:url(#svg1.face_highlight_1_)"
   d="m 27.958,6.333 c -6.035,0.047 -10.747,4.493 -12.787,10.386 -0.664,1.919 -0.294,4.043 0.98,5.629 2.73,3.398 5.729,6.283 9.461,8.088 3.137,1.518 7.535,2.385 11.893,1.247 2.274,-0.592 3.988,-2.459 4.375,-4.766 0.187,-1.094 0.293,-2.289 0.283,-3.553 C 42.083,13.952 36.271,6.268 27.958,6.333 Z"
   id="svg1.face_highlight_2_" />
	<path
   style="fill:#4b4b4b;stroke:#000000;stroke-linecap:round;stroke-linejoin:round"
   inkscape:connector-curvature="0"
   id="svg1.Hair_Young_Black_1_"
   d="m 20.278,13.25 c 3.417,4.333 9.333,6.917 9.333,6.917 l -1.417,-3.5 c 0,0 7.094,4.691 8.083,4.333 0.968,-0.2 -1.082,-3.807 -1.082,-3.807 0,0 3.138,1.795 4.854,3.969 1.803,2.28 4.285,3.504 4.285,3.504 0,0 2.693,-21.947 -17.045,-21.922 C 8.278,2.709 12.058,27.678 12.058,27.678 L 14.695,17 c 0,0 0.914,5.757 1.399,4.875 1.767,-6.664 2.767,-10.375 4.184,-8.625 z" />
</g>
</svg>    </g>
  </g>
  <g
     style="fill:#ffffff;stroke:#ffffff;shape-rendering:geometricPrecision;text-rendering:geometricPrecision"
     id="g106"
     transform="translate(-36,-372)">
    <path
       style="fill-rule:evenodd;stroke:none"
       inkscape:connector-curvature="0"
       id="path104"
       clip-path="url(#clipPath2)"
       d="m 298.1309,524.7201 h 135.6643 l 15.0739,30 H 313.2048 Z" />
  </g>
  <g
     style="fill:#ffffff;stroke:#ffffff;shape-rendering:geometricPrecision;text-rendering:geometricPrecision"
     id="g116"
     transform="translate(-36,-372)">
    <path
       style="fill-rule:evenodd;stroke:none"
       inkscape:connector-curvature="0"
       id="path114"
       clip-path="url(#clipPath2)"
       d="M 308.7016,387.28 H 454.498 l -16.1996,30 H 292.502 Z" />
  </g>
  <path
     d="m 111.1429,456 4.1071,-3.5938 10.625,-7.3046 10.625,-5.9766 10.625,-4.6484 10.625,-3.3204 10.625,-1.9921 L 179,428.5 l 10.625,0.6641 10.625,1.9921 10.625,3.3204 10.625,4.6484 10.625,5.9766 8.4992,5.8432 0.0753,0.0659"
     clip-path="url(#clipPath2)"
     id="path122"
     inkscape:connector-curvature="0"
     style="fill:none;stroke-linecap:butt;stroke-miterlimit:1.45000005;shape-rendering:geometricPrecision;text-rendering:geometricPrecision"
     transform="translate(-36,-372)" />
  <path
     d="m 246.9158,456.0463 -6.1772,-11.4387 -0.8162,5.7736 -5.4783,1.9968 z"
     clip-path="url(#clipPath2)"
     id="path124"
     inkscape:connector-curvature="0"
     style="stroke:none;stroke-linecap:butt;stroke-miterlimit:1.45000005;shape-rendering:geometricPrecision;text-rendering:geometricPrecision"
     transform="translate(-36,-372)" />
  <text
     x="122.2581"
     xml:space="preserve"
     y="423.45731"
     clip-path="url(#clipPath2)"
     id="text126"
     style="font-family:sans-serif;stroke:none;stroke-linecap:butt;stroke-miterlimit:1.45000005;shape-rendering:geometricPrecision;text-rendering:geometricPrecision"
     transform="translate(-36,-372)">forward requests</text>
  <path
     d="m 246.8381,486.0166 -4.0881,3.5772 -10.625,7.3046 -10.625,5.9766 -10.625,4.6484 -10.625,3.3204 -10.625,1.9921 L 179,513.5 l -10.625,-0.6641 -10.625,-1.9921 -10.625,-3.3204 -10.625,-4.6484 -10.625,-5.9766 -8.5201,-5.8575 -0.0752,-0.0659"
     clip-path="url(#clipPath2)"
     id="path128"
     inkscape:connector-curvature="0"
     style="fill:none;stroke-linecap:butt;stroke-miterlimit:1.45000005;stroke-dasharray:6, 2;shape-rendering:geometricPrecision;text-rendering:geometricPrecision"
     transform="translate(-36,-372)" />
  <path
     d="m 111.0652,485.9371 6.173,11.4409 0.8183,-5.7732 5.4791,-1.9948 z"
     clip-path="url(#clipPath2)"
     id="path130"
     inkscape:connector-curvature="0"
     style="stroke:none;stroke-linecap:butt;stroke-miterlimit:1.45000005;stroke-dasharray:6, 2;shape-rendering:geometricPrecision;text-rendering:geometricPrecision"
     transform="translate(-36,-372)" />
  <text
     x="147.02209"
     xml:space="preserve"
     y="530.53851"
     clip-path="url(#clipPath2)"
     id="text132"
     style="font-family:sans-serif;stroke:none;stroke-linecap:butt;stroke-miterlimit:1.45000005;shape-rendering:geometricPrecision;text-rendering:geometricPrecision"
     transform="translate(-36,-372)">add routes</text>
  <path
     d="m 462.3013,456.014 -5.2805,-11.8792 -1.2571,5.6938 -5.6156,1.5703 z"
     clip-path="url(#clipPath2)"
     id="path136"
     inkscape:connector-curvature="0"
     style="stroke:none;stroke-linecap:butt;stroke-miterlimit:1.45000005;shape-rendering:geometricPrecision;text-rendering:geometricPrecision"
     transform="translate(-36,-372)" />
  <text
     x="316.09009"
     xml:space="preserve"
     y="441.87549"
     clip-path="url(#clipPath2)"
     id="text138"
     style="font-family:sans-serif;stroke:none;stroke-linecap:butt;stroke-miterlimit:1.45000005;shape-rendering:geometricPrecision;text-rendering:geometricPrecision"
     transform="translate(-36,-372)">unmarshall inputs</text>
  <path
     d="m 276.437,485.9059 4.6076,12.1561 1.5737,-5.6146 5.6946,-1.2535 z"
     clip-path="url(#clipPath2)"
     id="path142"
     inkscape:connector-curvature="0"
     style="stroke:none;stroke-linecap:butt;stroke-miterlimit:1.45000005;shape-rendering:geometricPrecision;text-rendering:geometricPrecision"
     transform="translate(-36,-372)" />
  <text
     x="319.6637"
     xml:space="preserve"
     y="513.02948"
     clip-path="url(#clipPath2)"
     id="text144"
     style="font-family:sans-serif;stroke:none;stroke-linecap:butt;stroke-miterlimit:1.45000005;shape-rendering:geometricPrecision;text-rendering:geometricPrecision"
     transform="translate(-36,-372)">marshall outputs</text>
  <path
     d="m 528.6141,471 h 79.0581"
     clip-path="url(#clipPath2)"
     id="path146"
     inkscape:connector-curvature="0"
     style="fill:none;stroke-linecap:butt;stroke-miterlimit:1.45000005;shape-rendering:geometricPrecision;text-rendering:geometricPrecision"
     transform="translate(-36,-372)" />
  <path
     d="m 520.6141,471 12,5 -3,-5 3,-5 z"
     clip-path="url(#clipPath2)"
     id="path148"
     inkscape:connector-curvature="0"
     style="stroke:none;stroke-linecap:butt;stroke-miterlimit:1.45000005;shape-rendering:geometricPrecision;text-rendering:geometricPrecision"
     transform="translate(-36,-372)" />
  <path
     d="m 615.6722,471 -12,-5 3,5 -3,5 z"
     clip-path="url(#clipPath2)"
     id="path150"
     inkscape:connector-curvature="0"
     style="stroke:none;stroke-linecap:butt;stroke-miterlimit:1.45000005;shape-rendering:geometricPrecision;text-rendering:geometricPrecision"
     transform="translate(-36,-372)" />
  <text
     x="546.4469"
     xml:space="preserve"
     y="468.16989"
     clip-path="url(#clipPath2)"
     id="text152"
     style="font-family:sans-serif;stroke:none;stroke-linecap:butt;stroke-miterlimit:1.45000005;shape-rendering:geometricPrecision;text-rendering:geometricPrecision"
     transform="translate(-36,-372)">read or</text>
  <text
     x="536.95178"
     xml:space="preserve"
     y="482.1387"
     clip-path="url(#clipPath2)"
     id="text154"
     style="font-family:sans-serif;stroke:none;stroke-linecap:butt;stroke-miterlimit:1.45000005;shape-rendering:geometricPrecision;text-rendering:geometricPrecision"
     transform="translate(-36,-372)"> alter data</text>
  <path
     d="m 265.4998,486.0233 0.9852,9.8696 -1.3475,22.1607 -2.111,10.0558 -3.0691,9.3728 -4.0272,8.6896 -4.9854,8.0067 -5.9435,7.3235 -6.9016,6.6405 -7.8598,5.9574 -8.8179,5.2744 -20.5103,8.4996 -1.2014,0.2847"
     clip-path="url(#clipPath2)"
     id="path156"
     inkscape:connector-curvature="0"
     style="fill:none;stroke-linecap:butt;stroke-miterlimit:1.45000005;shape-rendering:geometricPrecision;text-rendering:geometricPrecision"
     transform="translate(-36,-372)" />
  <path
     d="m 191.9258,590.0029 12.8295,2.0988 -4.0719,-4.1737 1.7665,-5.5569 z"
     clip-path="url(#clipPath2)"
     id="path158"
     inkscape:connector-curvature="0"
     style="stroke:none;stroke-linecap:butt;stroke-miterlimit:1.45000005;shape-rendering:geometricPrecision;text-rendering:geometricPrecision"
     transform="translate(-36,-372)" />
  <text
     x="236.1613"
     xml:space="preserve"
     y="578.51367"
     clip-path="url(#clipPath2)"
     id="text160"
     style="font-family:sans-serif;stroke:none;stroke-linecap:butt;stroke-miterlimit:1.45000005;shape-rendering:geometricPrecision;text-rendering:geometricPrecision"
     transform="translate(-36,-372)">send</text>
  <text
     x="223.20621"
     xml:space="preserve"
     y="592.48248"
     clip-path="url(#clipPath2)"
     id="text162"
     style="font-family:sans-serif;stroke:none;stroke-linecap:butt;stroke-miterlimit:1.45000005;shape-rendering:geometricPrecision;text-rendering:geometricPrecision"
     transform="translate(-36,-372)">response</text>
  <path
     d="m 160.2048,589.2983 -7.3709,-1.9562 -19.9024,-8.8795 -8.5141,-5.4073 -7.5559,-6.0524 -6.5977,-6.6975 -5.6396,-7.3425 -4.6815,-7.9876 -3.7234,-8.6327 -2.7652,-9.2778 -1.8071,-9.9228 -0.7398,-21.7809 0.1809,-1.4248"
     clip-path="url(#clipPath2)"
     id="path164"
     inkscape:connector-curvature="0"
     style="fill:none;stroke-linecap:butt;stroke-miterlimit:1.45000005;shape-rendering:geometricPrecision;text-rendering:geometricPrecision"
     transform="translate(-36,-372)" />
  <path
     d="m 92.0957,486 -6.4715,11.2747 5.338,-2.3464 4.5823,3.6059 z"
     clip-path="url(#clipPath2)"
     id="path166"
     inkscape:connector-curvature="0"
     style="stroke:none;stroke-linecap:butt;stroke-miterlimit:1.45000005;shape-rendering:geometricPrecision;text-rendering:geometricPrecision"
     transform="translate(-36,-372)" />
  <text
     x="62.240101"
     xml:space="preserve"
     y="567.84338"
     clip-path="url(#clipPath2)"
     id="text168"
     style="font-family:sans-serif;stroke:none;stroke-linecap:butt;stroke-miterlimit:1.45000005;shape-rendering:geometricPrecision;text-rendering:geometricPrecision"
     transform="translate(-36,-372)">send</text>
  <text
     x="53.729401"
     xml:space="preserve"
     y="581.81207"
     clip-path="url(#clipPath2)"
     id="text170"
     style="font-family:sans-serif;stroke:none;stroke-linecap:butt;stroke-miterlimit:1.45000005;shape-rendering:geometricPrecision;text-rendering:geometricPrecision"
     transform="translate(-36,-372)">request</text>
  <g
     style="stroke-linecap:butt;stroke-miterlimit:1.45000005;shape-rendering:geometricPrecision;text-rendering:geometricPrecision"
     id="g112"
     transform="translate(-36,-372)"
     stroke-miterlimit="1.45">
    <path
       style="fill:none;fill-rule:evenodd"
       inkscape:connector-curvature="0"
       id="path108"
       clip-path="url(#clipPath2)"
       d="m 298.1309,524.7201 h 135.6643 l 15.0739,30 H 313.2048 Z" />
    <text
       style="font-family:sans-serif;stroke:none"
       id="text110"
       clip-path="url(#clipPath2)"
       y="543.87433"
       xml:space="preserve"
       x="317.63089">ResourceSerializer</text>
  </g>
  <text
     x="310.00201"
     xml:space="preserve"
     y="406.4343"
     clip-path="url(#clipPath2)"
     id="text120"
     style="font-family:sans-serif;stroke:none;stroke-linecap:butt;stroke-miterlimit:1.45000005;shape-rendering:geometricPrecision;text-rendering:geometricPrecision"
     transform="translate(-36,-372)">ResourceDeserializer</text>
  <path
     d="M 308.7016,387.28 H 454.498 l -16.1996,30 H 292.502 Z"
     clip-path="url(#clipPath2)"
     id="path118"
     inkscape:connector-curvature="0"
     style="fill:none;fill-rule:evenodd;stroke-linecap:butt;stroke-miterlimit:1.45000005;shape-rendering:geometricPrecision;text-rendering:geometricPrecision"
     transform="translate(-36,-372)" />
</svg>
