<?xml version="1.0" encoding="UTF-8" standalone="no"?>
<svg xmlns="http://www.w3.org/2000/svg" xmlns:xlink="http://www.w3.org/1999/xlink" contentScriptType="application/ecmascript" contentStyleType="text/css" height="358px" preserveAspectRatio="none" style="width:487px;height:358px;" version="1.1" viewBox="0 0 487 358" width="487px" zoomAndPan="magnify"><defs><filter height="300%" id="f1bvicspdoa2mm" width="300%" x="-1" y="-1"><feGaussianBlur result="blurOut" stdDeviation="2.0"/><feColorMatrix in="blurOut" result="blurOut2" type="matrix" values="0 0 0 0 0 0 0 0 0 0 0 0 0 0 0 0 0 0 .4 0"/><feOffset dx="4.0" dy="4.0" in="blurOut2" result="blurOut3"/><feBlend in="SourceGraphic" in2="blurOut3" mode="normal"/></filter></defs><g><!--MD5=[84e3eab7d85e20689c1d4fcf29a7fd55]
cluster Previous Labs--><polygon fill="#FFFFFF" filter="url(#f1bvicspdoa2mm)" points="16,6,134,6,141,28.2969,218,28.2969,218,226,16,226,16,6" style="stroke: #000000; stroke-width: 1.5;"/><line style="stroke: #000000; stroke-width: 1.5;" x1="16" x2="141" y1="28.2969" y2="28.2969"/><text fill="#000000" font-family="sans-serif" font-size="14" font-weight="bold" lengthAdjust="spacingAndGlyphs" textLength="112" x="20" y="20.9951">Previous Labs</text><!--MD5=[ec3ca3c144b5c89334d6b604f6746f31]
cluster Current Lab--><polygon fill="#FFFFFF" filter="url(#f1bvicspdoa2mm)" points="242,6,343,6,350,28.2969,470,28.2969,470,351,242,351,242,6" style="stroke: #000000; stroke-width: 1.5;"/><line style="stroke: #000000; stroke-width: 1.5;" x1="242" x2="350" y1="28.2969" y2="28.2969"/><text fill="#000000" font-family="sans-serif" font-size="14" font-weight="bold" lengthAdjust="spacingAndGlyphs" textLength="95" x="246" y="20.9951">Current Lab</text><!--MD5=[634a1b6692de73e50222cdb192ed9443]
entity TextualSpaceImpl--><rect fill="#FEFECE" filter="url(#f1bvicspdoa2mm)" height="46.2969" style="stroke: #A80036; stroke-width: 1.5;" width="169" x="32.5" y="41"/><rect fill="#FEFECE" height="10" style="stroke: #A80036; stroke-width: 1.5;" width="15" x="181.5" y="46"/><rect fill="#FEFECE" height="2" style="stroke: #A80036; stroke-width: 1.5;" width="4" x="179.5" y="48"/><rect fill="#FEFECE" height="2" style="stroke: #A80036; stroke-width: 1.5;" width="4" x="179.5" y="52"/><text fill="#000000" font-family="sans-serif" font-size="14" lengthAdjust="spacingAndGlyphs" textLength="129" x="47.5" y="73.9951">TextualSpaceImpl</text><!--MD5=[223be4906a040b4daca033a058233289]
entity TextualSpace--><rect fill="#FEFECE" filter="url(#f1bvicspdoa2mm)" height="46.2969" style="stroke: #A80036; stroke-width: 1.5;" width="137" x="64.5" y="164"/><rect fill="#FEFECE" height="10" style="stroke: #A80036; stroke-width: 1.5;" width="15" x="181.5" y="169"/><rect fill="#FEFECE" height="2" style="stroke: #A80036; stroke-width: 1.5;" width="4" x="179.5" y="171"/><rect fill="#FEFECE" height="2" style="stroke: #A80036; stroke-width: 1.5;" width="4" x="179.5" y="175"/><text fill="#000000" font-family="sans-serif" font-size="14" lengthAdjust="spacingAndGlyphs" textLength="97" x="79.5" y="196.9951">TextualSpace</text><!--MD5=[ee50458034e4dd0aa77693b3b87b92d1]
entity Web Service--><rect fill="#FEFECE" filter="url(#f1bvicspdoa2mm)" height="46.2969" style="stroke: #A80036; stroke-width: 1.5;" width="130" x="265" y="289"/><rect fill="#FEFECE" height="10" style="stroke: #A80036; stroke-width: 1.5;" width="15" x="375" y="294"/><rect fill="#FEFECE" height="2" style="stroke: #A80036; stroke-width: 1.5;" width="4" x="373" y="296"/><rect fill="#FEFECE" height="2" style="stroke: #A80036; stroke-width: 1.5;" width="4" x="373" y="300"/><text fill="#000000" font-family="sans-serif" font-size="14" lengthAdjust="spacingAndGlyphs" textLength="90" x="280" y="321.9951">Web Service</text><!--MD5=[3e2aafc70fd4367d8ba497c92eece1e1]
entity Web Client--><rect fill="#FEFECE" filter="url(#f1bvicspdoa2mm)" height="46.2969" style="stroke: #A80036; stroke-width: 1.5;" width="120" x="290" y="164"/><rect fill="#FEFECE" height="10" style="stroke: #A80036; stroke-width: 1.5;" width="15" x="390" y="169"/><rect fill="#FEFECE" height="2" style="stroke: #A80036; stroke-width: 1.5;" width="4" x="388" y="171"/><rect fill="#FEFECE" height="2" style="stroke: #A80036; stroke-width: 1.5;" width="4" x="388" y="175"/><text fill="#000000" font-family="sans-serif" font-size="14" lengthAdjust="spacingAndGlyphs" textLength="80" x="305" y="196.9951">Web Client</text><!--MD5=[77662fe48e108931d380e2b70e66723b]
entity RemoteTextualSpace--><rect fill="#FEFECE" filter="url(#f1bvicspdoa2mm)" height="46.2969" style="stroke: #A80036; stroke-width: 1.5;" width="195" x="258.5" y="41"/><rect fill="#FEFECE" height="10" style="stroke: #A80036; stroke-width: 1.5;" width="15" x="433.5" y="46"/><rect fill="#FEFECE" height="2" style="stroke: #A80036; stroke-width: 1.5;" width="4" x="431.5" y="48"/><rect fill="#FEFECE" height="2" style="stroke: #A80036; stroke-width: 1.5;" width="4" x="431.5" y="52"/><text fill="#000000" font-family="sans-serif" font-size="14" lengthAdjust="spacingAndGlyphs" textLength="155" x="273.5" y="73.9951">RemoteTextualSpace</text><!--MD5=[ab1f001b494527ed08bf9b5f4fc5250a]
link TextualSpaceImpl to TextualSpace--><path d="M114.173,87.214 C112.981,100.813 112.396,118.518 115,134 C116.404,142.348 118.993,151.147 121.777,159.084 " fill="none" id="TextualSpaceImpl-to-TextualSpace" style="stroke: #A80036; stroke-width: 1.0; stroke-dasharray: 7.0,7.0;"/><polygon fill="#A80036" points="123.528,163.904,124.2151,154.0791,121.821,159.2044,116.6957,156.8103,123.528,163.904" style="stroke: #A80036; stroke-width: 1.0;"/><text fill="#000000" font-family="sans-serif" font-size="13" lengthAdjust="spacingAndGlyphs" textLength="76" x="116" y="130.0669">implements</text><!--MD5=[8f2e06c0693d978fbcd34804e697d991]
reverse link TextualSpace to Web Service--><path d="M172.943,212.939 C208.615,235.211 260.372,267.5268 294.59,288.8913 " fill="none" id="TextualSpace-backto-Web Service" style="stroke: #A80036; stroke-width: 1.0;"/><polygon fill="#A80036" points="168.675,210.274,174.1922,218.4325,172.9167,212.9213,178.4279,211.6458,168.675,210.274" style="stroke: #A80036; stroke-width: 1.0;"/><text fill="#000000" font-family="sans-serif" font-size="13" lengthAdjust="spacingAndGlyphs" textLength="39" x="245" y="255.0669">wraps</text><!--MD5=[3b322c8bf174475723920517bff04863]
link Web Client to Web Service--><path d="M346.378,210.274 C342.753,232.566 337.21,266.658 333.595,288.8913 " fill="none" id="Web Client-Web Service" style="stroke: #A80036; stroke-width: 1.0;"/><text fill="#000000" font-family="sans-serif" font-size="13" lengthAdjust="spacingAndGlyphs" textLength="33" x="342" y="255.0669">HTTP</text><path d="M348.097,243.7601 A10,10 0 0 0 334.1382 241.4904" fill="#FFFFFF" style="stroke: #A80036; stroke-width: 1.5;"/><ellipse cx="339.9828" cy="249.6047" fill="#FFFFFF" rx="6" ry="6" style="stroke: #A80036; stroke-width: 1.5;"/><!--MD5=[6167643e7283038f07d2fd346c4c313e]
link RemoteTextualSpace to Web Client--><path d="M354.9,87.193 C353.897,107.405 352.415,137.307 351.343,158.919 " fill="none" id="RemoteTextualSpace-to-Web Client" style="stroke: #A80036; stroke-width: 1.0;"/><polygon fill="#A80036" points="351.094,163.947,355.5339,155.1557,351.3411,158.9531,347.5437,154.7603,351.094,163.947" style="stroke: #A80036; stroke-width: 1.0;"/><text fill="#000000" font-family="sans-serif" font-size="13" lengthAdjust="spacingAndGlyphs" textLength="39" x="354" y="130.0669">wraps</text><!--MD5=[5d4ff60cd6440c512687b91c8790bf1b]
link RemoteTextualSpace to TextualSpace--><path d="M315.358,87.053 C276.727,108.013 218.722,139.487 178.548,161.286 " fill="none" id="RemoteTextualSpace-to-TextualSpace" style="stroke: #A80036; stroke-width: 1.0; stroke-dasharray: 7.0,7.0;"/><polygon fill="#A80036" points="173.74,163.895,183.5582,163.1186,178.1348,161.5105,179.7429,156.087,173.74,163.895" style="stroke: #A80036; stroke-width: 1.0;"/><text fill="#000000" font-family="sans-serif" font-size="13" lengthAdjust="spacingAndGlyphs" textLength="76" x="259" y="130.0669">implements</text><!--MD5=[0734229654ebaeb3b3d858fd8bf7b1b8]
@startuml
package "Previous Labs" {
  [TextualSpaceImpl] ..> [TextualSpace]: implements
}
package "Current Lab" {
[TextualSpace] <- - [Web Service]: wraps
[Web Client] -(0- [Web Service] : HTTP
[RemoteTextualSpace] - -> [Web Client]: wraps
}
[RemoteTextualSpace] ..> [TextualSpace]: implements
@enduml

PlantUML version 1.2020.20beta13(Unknown compile time)
(GPL source distribution)
Java Runtime: Java(TM) SE Runtime Environment
JVM: Java HotSpot(TM) 64-Bit Server VM
Default Encoding: UTF-8
Language: en
Country: US
--></g></svg>