<?xml version="1.0" encoding="UTF-8" standalone="no"?>
<svg xmlns="http://www.w3.org/2000/svg" xmlns:xlink="http://www.w3.org/1999/xlink" contentScriptType="application/ecmascript" contentStyleType="text/css" height="351px" preserveAspectRatio="none" style="width:451px;height:351px;" version="1.1" viewBox="0 0 451 351" width="451px" zoomAndPan="magnify"><defs><filter height="300%" id="fk4ygp14yys3n" width="300%" x="-1" y="-1"><feGaussianBlur result="blurOut" stdDeviation="2.0"/><feColorMatrix in="blurOut" result="blurOut2" type="matrix" values="0 0 0 0 0 0 0 0 0 0 0 0 0 0 0 0 0 0 .4 0"/><feOffset dx="4.0" dy="4.0" in="blurOut2" result="blurOut3"/><feBlend in="SourceGraphic" in2="blurOut3" mode="normal"/></filter></defs><g><!--MD5=[9d29937fd8592e1d03835b769e233ce7]
cluster Lab 1-6--><polygon fill="#FFFFFF" filter="url(#fk4ygp14yys3n)" points="22,24,87,24,94,46.2969,196,46.2969,196,224,22,224,22,24" style="stroke: #000000; stroke-width: 1.5;"/><line style="stroke: #000000; stroke-width: 1.5;" x1="22" x2="94" y1="46.2969" y2="46.2969"/><text fill="#000000" font-family="sans-serif" font-size="14" font-weight="bold" lengthAdjust="spacingAndGlyphs" textLength="59" x="26" y="38.9951">Lab 1-6</text><!--MD5=[83da5b8ff53444e97063303c9eadbbec]
cluster Lab 7- --><polygon fill="#FFFFFF" filter="url(#fk4ygp14yys3n)" points="229,24,284,24,291,46.2969,429,46.2969,429,339,229,339,229,24" style="stroke: #000000; stroke-width: 1.5;"/><line style="stroke: #000000; stroke-width: 1.5;" x1="229" x2="291" y1="46.2969" y2="46.2969"/><text fill="#000000" font-family="sans-serif" font-size="14" font-weight="bold" lengthAdjust="spacingAndGlyphs" textLength="49" x="233" y="38.9951">Lab 7-</text><!--MD5=[634a1b6692de73e50222cdb192ed9443]
entity TextualSpaceImpl--><rect fill="#FEFECE" filter="url(#fk4ygp14yys3n)" height="36.2969" style="stroke: #A80036; stroke-width: 1.5;" width="141" x="38.5" y="59"/><rect fill="#FEFECE" height="5" style="stroke: #A80036; stroke-width: 1.5;" width="10" x="33.5" y="64"/><rect fill="#FEFECE" height="5" style="stroke: #A80036; stroke-width: 1.5;" width="10" x="33.5" y="85.2969"/><text fill="#000000" font-family="sans-serif" font-size="14" lengthAdjust="spacingAndGlyphs" textLength="121" x="48.5" y="81.9951">TextualSpaceImpl</text><!--MD5=[223be4906a040b4daca033a058233289]
entity TextualSpace--><rect fill="#FEFECE" filter="url(#fk4ygp14yys3n)" height="36.2969" style="stroke: #A80036; stroke-width: 1.5;" width="113" x="66.5" y="172"/><rect fill="#FEFECE" height="5" style="stroke: #A80036; stroke-width: 1.5;" width="10" x="61.5" y="177"/><rect fill="#FEFECE" height="5" style="stroke: #A80036; stroke-width: 1.5;" width="10" x="61.5" y="198.2969"/><text fill="#000000" font-family="sans-serif" font-size="14" lengthAdjust="spacingAndGlyphs" textLength="93" x="76.5" y="194.9951">TextualSpace</text><!--MD5=[ee50458034e4dd0aa77693b3b87b92d1]
entity Web Service--><rect fill="#FEFECE" filter="url(#fk4ygp14yys3n)" height="36.2969" style="stroke: #A80036; stroke-width: 1.5;" width="105" x="249.5" y="287"/><rect fill="#FEFECE" height="5" style="stroke: #A80036; stroke-width: 1.5;" width="10" x="244.5" y="292"/><rect fill="#FEFECE" height="5" style="stroke: #A80036; stroke-width: 1.5;" width="10" x="244.5" y="313.2969"/><text fill="#000000" font-family="sans-serif" font-size="14" lengthAdjust="spacingAndGlyphs" textLength="85" x="259.5" y="309.9951">Web Service</text><!--MD5=[3e2aafc70fd4367d8ba497c92eece1e1]
entity Web Client--><rect fill="#FEFECE" filter="url(#fk4ygp14yys3n)" height="36.2969" style="stroke: #A80036; stroke-width: 1.5;" width="94" x="278" y="172"/><rect fill="#FEFECE" height="5" style="stroke: #A80036; stroke-width: 1.5;" width="10" x="273" y="177"/><rect fill="#FEFECE" height="5" style="stroke: #A80036; stroke-width: 1.5;" width="10" x="273" y="198.2969"/><text fill="#000000" font-family="sans-serif" font-size="14" lengthAdjust="spacingAndGlyphs" textLength="74" x="288" y="194.9951">Web Client</text><!--MD5=[77662fe48e108931d380e2b70e66723b]
entity RemoteTextualSpace--><rect fill="#FEFECE" filter="url(#fk4ygp14yys3n)" height="36.2969" style="stroke: #A80036; stroke-width: 1.5;" width="168" x="245" y="59"/><rect fill="#FEFECE" height="5" style="stroke: #A80036; stroke-width: 1.5;" width="10" x="240" y="64"/><rect fill="#FEFECE" height="5" style="stroke: #A80036; stroke-width: 1.5;" width="10" x="240" y="85.2969"/><text fill="#000000" font-family="sans-serif" font-size="14" lengthAdjust="spacingAndGlyphs" textLength="148" x="255" y="81.9951">RemoteTextualSpace</text><!--MD5=[ab1f001b494527ed08bf9b5f4fc5250a]
link TextualSpaceImpl to TextualSpace--><path d="M100.209,95.224 C94.7485,108.17 89.5462,126.3 94,142 C96.5137,150.861 101.2243,159.69 106.129,167.263 " fill="none" id="TextualSpaceImpl-&gt;TextualSpace" style="stroke: #A80036; stroke-width: 1.0; stroke-dasharray: 7.0,7.0;"/><polygon fill="#A80036" points="109.19,171.805,107.4771,162.1062,106.3956,167.6587,100.8431,166.5772,109.19,171.805" style="stroke: #A80036; stroke-width: 1.0;"/><text fill="#000000" font-family="sans-serif" font-size="13" lengthAdjust="spacingAndGlyphs" textLength="76" x="95" y="138.0669">implements</text><!--MD5=[8f2e06c0693d978fbcd34804e697d991]
reverse link TextualSpace to Web Service--><path d="M154.662,210.988 C188.8,232.539 242.577,266.487 274.852,286.8617 " fill="none" id="TextualSpace&lt;-Web Service" style="stroke: #A80036; stroke-width: 1.0;"/><polygon fill="#A80036" points="150.186,208.162,155.6611,216.3488,154.414,210.8311,159.9317,209.584,150.186,208.162" style="stroke: #A80036; stroke-width: 1.0;"/><text fill="#000000" font-family="sans-serif" font-size="13" lengthAdjust="spacingAndGlyphs" textLength="37" x="225" y="253.0669">wraps</text><!--MD5=[3b322c8bf174475723920517bff04863]
link Web Client to Web Service--><path d="M321.507,208.162 C317.184,229.401 309.864,265.363 305.526,286.6762 " fill="none" id="Web Client-Web Service" style="stroke: #A80036; stroke-width: 1.0;"/><text fill="#000000" font-family="sans-serif" font-size="13" lengthAdjust="spacingAndGlyphs" textLength="32" x="316" y="253.0669">HTTP</text><path d="M321.8615,241.8726 A10,10 0 0 0 308.0035 239.0519" fill="#FFFFFF" style="stroke: #A80036; stroke-width: 1.5;"/><ellipse cx="313.5221" cy="247.3913" fill="#FFFFFF" rx="6" ry="6" style="stroke: #A80036; stroke-width: 1.5;"/><!--MD5=[6167643e7283038f07d2fd346c4c313e]
link RemoteTextualSpace to Web Client--><path d="M328.375,95.344 C327.682,114.568 326.563,145.63 325.805,166.661 " fill="none" id="RemoteTextualSpace-&gt;Web Client" style="stroke: #A80036; stroke-width: 1.0;"/><polygon fill="#A80036" points="325.621,171.778,329.9424,162.9278,325.801,166.7812,321.9476,162.6398,325.621,171.778" style="stroke: #A80036; stroke-width: 1.0;"/><text fill="#000000" font-family="sans-serif" font-size="13" lengthAdjust="spacingAndGlyphs" textLength="37" x="328" y="138.0669">wraps</text><!--MD5=[5d4ff60cd6440c512687b91c8790bf1b]
link RemoteTextualSpace to TextualSpace--><path d="M296.39,95.075 C279.525,103.942 258.623,114.99 240,125 C212.66,139.696 181.869,156.551 158.738,169.274 " fill="none" id="RemoteTextualSpace-&gt;TextualSpace" style="stroke: #A80036; stroke-width: 1.0; stroke-dasharray: 7.0,7.0;"/><polygon fill="#A80036" points="154.218,171.762,164.0315,170.9279,158.5987,169.3516,160.1749,163.9188,154.218,171.762" style="stroke: #A80036; stroke-width: 1.0;"/><text fill="#000000" font-family="sans-serif" font-size="13" lengthAdjust="spacingAndGlyphs" textLength="76" x="241" y="138.0669">implements</text><!--MD5=[9b9b3cd2249396b2e199825f8d7e2200]
@startuml
package "Lab 1-6" {
  [TextualSpaceImpl] ..> [TextualSpace]: implements
}
package "Lab 7-" {
[TextualSpace] <- - [Web Service]: wraps
[Web Client] -(0- [Web Service] : HTTP
[RemoteTextualSpace] - -> [Web Client]: wraps
}
[RemoteTextualSpace] ..> [TextualSpace]: implements
@enduml

PlantUML version 1.2019.12(Sun Nov 03 10:24:54 UTC 2019)
(GPL source distribution)
Java Runtime: Java(TM) SE Runtime Environment
JVM: Java HotSpot(TM) 64-Bit Server VM
Java Version: 1.7.0_25-b15
Operating System: Linux
Default Encoding: UTF-8
Language: en
Country: US
--></g></svg>